<svg version="1.1" xmlns="http://www.w3.org/2000/svg" viewBox="0 0 455.8626878195655 347.05028112044783" width="455.8626878195655" height="347.05028112044783" filter="invert(93%) hue-rotate(180deg)">
  <!-- svg-source:excalidraw -->
  
  <defs>
    <style class="style-fonts">
      @font-face {
        font-family: "Virgil";
        src: url("https://excalidraw.com/Virgil.woff2");
      }
      @font-face {
        font-family: "Cascadia";
        src: url("https://excalidraw.com/Cascadia.woff2");
      }
      @font-face {
        font-family: "Assistant";
        src: url("https://excalidraw.com/Assistant-Regular.woff2");
      }
    </style>
    
  </defs>
  <g stroke-linecap="round"><g transform="translate(192.81584431748524 48.0878000112516) rotate(0 -25.706627474012294 30.834968789487903)"><path d="M0.29 -1.02 C-6.28 4.63, -29.86 22.84, -38.34 33.22 C-46.82 43.59, -48.25 56.65, -50.57 61.23 M-1.01 1.05 C-7.3 6.98, -27.77 24.58, -36.09 34.79 C-44.4 45, -48.16 57.9, -50.89 62.31" stroke="#1971c2" stroke-width="2" fill="none"></path></g></g><mask></mask><g stroke-linecap="round"><g transform="translate(234.00877624134773 52.54598784246264) rotate(0 27.99583875219605 30.198011253464074)"><path d="M-0.87 0.07 C4.66 4.03, 24.15 12.8, 33.49 22.69 C42.83 32.58, 51.3 53.08, 55.16 59.41 M0.87 -0.93 C6.29 3.28, 23.53 13.8, 32.98 23.99 C42.44 34.18, 53.57 53.89, 57.62 60.22" stroke="#1971c2" stroke-width="2" fill="none"></path></g></g><mask></mask><g stroke-linecap="round"><g transform="translate(122.92311662279008 153.95784210382726) rotate(0 -17.117046721545194 19.268079684025224)"><path d="M0.85 -0.44 C-3.48 2.95, -21.11 13.89, -26.84 20.44 C-32.57 26.98, -32.19 35.64, -33.55 38.81 M-0.17 -1.72 C-4.04 1.78, -18.93 14.46, -24.56 21.46 C-30.19 28.46, -32.2 37.62, -33.95 40.28" stroke="#1971c2" stroke-width="2" fill="none"></path></g></g><mask></mask><g stroke-linecap="round"><g transform="translate(317.4804509816904 154.11463933611458) rotate(0 18.384359452129047 20.87699078564833)"><path d="M0.69 0.28 C4.63 3.51, 16.63 11.59, 22.81 18.43 C28.98 25.27, 35.3 37.28, 37.74 41.31 M-0.41 -0.62 C3.99 2.37, 18.83 9.63, 25.14 16.8 C31.46 23.97, 35.33 38.45, 37.49 42.4" stroke="#1971c2" stroke-width="2" fill="none"></path></g></g><mask></mask><g stroke-linecap="round"><g transform="translate(66.5186644319956 240.62239812360167) rotate(0 -15.98310563674022 21.440232459909794)"><path d="M-0.72 0.94 C-4.33 4.31, -15.92 13.41, -21 20.55 C-26.09 27.68, -29.43 40.14, -31.25 43.73 M1.11 0.38 C-2.64 3.9, -15.98 14.94, -21.44 21.85 C-26.9 28.76, -29.94 38.34, -31.64 41.84" stroke="#1971c2" stroke-width="2" fill="none"></path></g></g><mask></mask><g stroke-linecap="round"><g transform="translate(99.41335333420375 242.63191409638875) rotate(0 18.801812989858263 21.086325998452367)"><path d="M0.97 -0.44 C5.16 2.49, 18.28 11.57, 24.39 18.54 C30.5 25.51, 35.33 37.33, 37.65 41.41 M0.02 -1.72 C4.18 0.8, 17.67 9.53, 23.82 16.87 C29.96 24.2, 34.4 38.32, 36.91 42.32" stroke="#1971c2" stroke-width="2" fill="none"></path></g></g><mask></mask><g stroke-linecap="round" transform="translate(189.922221167295 10) rotate(0 24.557734602936307 24.5)"><path d="M30 0.25 C34.93 1.16, 40.95 5.68, 44.2 10 C47.45 14.32, 49.79 20.91, 49.51 26.18 C49.23 31.45, 46.23 37.78, 42.51 41.6 C38.78 45.42, 32.32 48.48, 27.17 49.1 C22.02 49.73, 15.97 48.23, 11.59 45.32 C7.21 42.42, 2.52 36.74, 0.87 31.66 C-0.78 26.58, -0.38 19.73, 1.67 14.82 C3.73 9.92, 8.19 4.53, 13.19 2.23 C18.18 -0.07, 28.49 1.04, 31.65 1.03 C34.8 1.03, 32.37 1.89, 32.13 2.21 M18.63 0.54 C23.42 -1.01, 31.25 -0.56, 35.9 1.84 C40.56 4.24, 44.48 10.18, 46.55 14.94 C48.61 19.71, 49.69 25.51, 48.28 30.45 C46.87 35.38, 42.47 41.39, 38.08 44.57 C33.69 47.74, 27.08 50.07, 21.96 49.52 C16.84 48.97, 11.01 45.08, 7.37 41.26 C3.73 37.43, 0.58 31.82, 0.12 26.57 C-0.34 21.33, 1.58 14.2, 4.6 9.79 C7.63 5.37, 16.03 1.54, 18.27 0.09 C20.52 -1.36, 17.94 0.5, 18.1 1.1" stroke="none" stroke-width="0" fill="#c2255c"></path><path d="M28.07 0.14 C33.02 0.54, 39.53 4.51, 43.05 8.39 C46.56 12.26, 48.98 18.09, 49.17 23.38 C49.35 28.67, 47.38 35.92, 44.13 40.13 C40.88 44.33, 34.94 47.7, 29.67 48.62 C24.41 49.55, 17.23 48.26, 12.53 45.7 C7.84 43.14, 3.44 38.03, 1.5 33.27 C-0.43 28.51, -0.73 22.09, 0.92 17.15 C2.57 12.21, 6.8 6.45, 11.4 3.64 C16 0.83, 25.49 0.8, 28.51 0.29 C31.52 -0.21, 29.47 0.16, 29.48 0.62 M24.95 0.35 C29.99 0.05, 36.12 2.11, 40.13 5.25 C44.14 8.39, 48.01 13.93, 48.99 19.2 C49.98 24.46, 48.62 32.19, 46.02 36.84 C43.42 41.48, 38.33 45.31, 33.4 47.08 C28.47 48.84, 21.54 49, 16.44 47.44 C11.34 45.87, 5.4 42.24, 2.8 37.69 C0.2 33.13, -0.06 25.32, 0.86 20.11 C1.78 14.9, 4.45 9.88, 8.33 6.44 C12.21 3, 21.46 0.53, 24.13 -0.53 C26.8 -1.6, 24.37 -0.34, 24.34 0.04" stroke="#228be6" stroke-width="2" fill="none"></path></g><g transform="translate(208.4350224261343 22.17588386092939) rotate(0 6.17999267578125 12.5)"><text x="6.17999267578125" y="17.52" font-family="Virgil, Segoe UI Emoji" font-size="20px" fill="#ffffff" text-anchor="middle" style="white-space: pre;" direction="ltr" dominant-baseline="alphabetic">5</text></g><g stroke-linecap="round" transform="translate(117.59549258491461 111.20921622613605) rotate(0 23.477688089757976 24.5)"><path d="M19.51 0.86 C24.14 -0.36, 30.66 0.99, 34.91 3.53 C39.16 6.07, 43.16 11.22, 45.02 16.1 C46.87 20.98, 47.65 27.92, 46.03 32.83 C44.41 37.73, 39.71 42.9, 35.28 45.52 C30.85 48.14, 24.41 49.46, 19.45 48.55 C14.49 47.64, 8.68 43.99, 5.5 40.05 C2.33 36.12, 0.45 30.03, 0.39 24.93 C0.32 19.83, 1.96 13.61, 5.12 9.45 C8.28 5.29, 16.88 1.37, 19.35 -0.02 C21.82 -1.41, 19.88 0.62, 19.94 1.09 M21.34 0.59 C25.98 -0.11, 33.18 0.98, 37.27 3.93 C41.37 6.88, 44.71 12.98, 45.91 18.29 C47.11 23.6, 46.54 31.08, 44.47 35.78 C42.4 40.48, 38.07 44.39, 33.51 46.48 C28.96 48.57, 22.07 49.76, 17.16 48.32 C12.25 46.89, 6.94 42.37, 4.06 37.88 C1.18 33.39, -0.52 26.56, -0.1 21.38 C0.32 16.21, 2.92 10.29, 6.57 6.82 C10.23 3.36, 19.36 1.67, 21.83 0.6 C24.3 -0.47, 21.45 0.04, 21.39 0.42" stroke="none" stroke-width="0" fill="#c2255c"></path><path d="M22.04 -0.42 C26.83 -1, 33.66 1.94, 37.74 5.15 C41.82 8.36, 45.42 13.85, 46.5 18.83 C47.58 23.81, 46.5 30.39, 44.2 35.04 C41.9 39.68, 37.3 44.49, 32.69 46.72 C28.08 48.96, 21.37 49.86, 16.52 48.43 C11.68 46.99, 6.39 42.55, 3.62 38.1 C0.84 33.65, -0.78 27, -0.15 21.72 C0.49 16.44, 3.56 10, 7.44 6.43 C11.32 2.86, 20.42 1.32, 23.16 0.3 C25.89 -0.71, 23.94 -0.11, 23.83 0.32 M26.52 -0.57 C31.31 -0.2, 37.18 4.17, 40.6 8.06 C44.03 11.94, 46.78 17.6, 47.06 22.75 C47.34 27.9, 45.42 34.57, 42.28 38.95 C39.15 43.33, 33.04 47.84, 28.23 49.01 C23.43 50.17, 17.89 48.33, 13.47 45.94 C9.05 43.56, 3.81 39.53, 1.71 34.7 C-0.39 29.86, -0.62 22.11, 0.88 16.93 C2.37 11.74, 6.51 6.49, 10.68 3.57 C14.86 0.66, 23.33 -0.11, 25.93 -0.55 C28.53 -0.99, 26.15 0.41, 26.26 0.96" stroke="#228be6" stroke-width="2" fill="none"></path></g><g transform="translate(134.5719543233381 123.38510008706544) rotate(0 6.399993896484375 12.5)"><text x="6.399993896484375" y="17.52" font-family="Virgil, Segoe UI Emoji" font-size="20px" fill="#ffffff" text-anchor="middle" style="white-space: pre;" direction="ltr" dominant-baseline="alphabetic">4</text></g><g stroke-linecap="round" transform="translate(59.71823231318376 194.18824660977225) rotate(0 25.563739179294316 25.591906329363837)"><path d="M32.45 1.01 C37.32 2.05, 43.36 6.81, 46.38 11.25 C49.4 15.68, 50.98 22.12, 50.56 27.64 C50.15 33.17, 47.86 40.33, 43.89 44.4 C39.92 48.46, 32.46 51.85, 26.74 52.02 C21.01 52.2, 14.06 48.75, 9.56 45.47 C5.05 42.18, 0.95 37.49, -0.3 32.29 C-1.56 27.1, -0.55 19.19, 2.02 14.31 C4.59 9.43, 9.86 5.24, 15.12 3.03 C20.38 0.81, 30.05 1.09, 33.58 1.04 C37.11 0.99, 36.48 2.31, 36.31 2.73 M23.37 -0.54 C28.57 -1.6, 35.27 1.7, 39.71 4.69 C44.16 7.68, 48.54 12.47, 50.02 17.42 C51.51 22.37, 50.94 29.26, 48.6 34.39 C46.26 39.52, 40.79 45.33, 36 48.19 C31.21 51.06, 25.15 52.82, 19.87 51.55 C14.58 50.29, 7.76 45.06, 4.31 40.59 C0.86 36.13, -1.08 30.33, -0.84 24.75 C-0.59 19.18, 1.81 11.38, 5.78 7.15 C9.76 2.92, 20.02 0.57, 23.02 -0.64 C26.02 -1.85, 23.76 -0.89, 23.77 -0.13" stroke="none" stroke-width="0" fill="#c2255c"></path><path d="M28.13 -0.26 C33.33 0.28, 39.76 4.81, 43.48 8.88 C47.2 12.95, 50.11 18.86, 50.45 24.17 C50.78 29.48, 48.59 36.47, 45.48 40.74 C42.36 45.01, 36.93 48.43, 31.78 49.81 C26.62 51.2, 19.5 51.46, 14.54 49.05 C9.58 46.64, 4.43 40.35, 2.03 35.37 C-0.37 30.39, -1.53 24.36, 0.13 19.17 C1.79 13.98, 6.33 7.1, 12 4.24 C17.67 1.38, 29.69 1.92, 34.13 2.03 C38.58 2.14, 38.68 4.55, 38.67 4.91 M18.58 1.97 C23.77 0.41, 33.28 -0.52, 38.3 1.93 C43.32 4.38, 46.8 11.64, 48.71 16.66 C50.62 21.68, 51.29 27.14, 49.77 32.06 C48.26 36.99, 44.28 43.28, 39.62 46.19 C34.96 49.11, 27.24 49.98, 21.81 49.55 C16.38 49.12, 10.44 47.35, 7.03 43.62 C3.63 39.88, 1.88 32.77, 1.39 27.16 C0.89 21.55, 1.14 14.37, 4.04 9.97 C6.93 5.57, 15.96 2.04, 18.75 0.78 C21.54 -0.47, 20.3 2.04, 20.79 2.42" stroke="#228be6" stroke-width="2" fill="none"></path></g><g transform="translate(79.7856799973697 207.183942430152) rotate(0 5.4199981689453125 12.5)"><text x="5.4199981689453125" y="17.52" font-family="Virgil, Segoe UI Emoji" font-size="20px" fill="#ffffff" text-anchor="middle" style="white-space: pre;" direction="ltr" dominant-baseline="alphabetic">11</text></g><g stroke-linecap="round" transform="translate(281.0515251184561 109.37077748125375) rotate(0 23.047484211914252 23.072878851640553)"><path d="M20.23 0.16 C24.87 -0.72, 31.39 1.13, 35.57 3.82 C39.76 6.51, 43.88 11.47, 45.35 16.28 C46.81 21.09, 46.39 28.12, 44.37 32.67 C42.35 37.23, 37.75 41.39, 33.2 43.6 C28.66 45.81, 21.84 47.1, 17.08 45.95 C12.33 44.81, 7.56 40.76, 4.69 36.73 C1.82 32.69, -0.34 26.69, -0.14 21.76 C0.07 16.83, 2.33 10.73, 5.91 7.14 C9.5 3.54, 18.77 1.29, 21.36 0.18 C23.96 -0.93, 21.53 0.19, 21.5 0.49 M27.91 1.07 C32.45 1.8, 38.23 4.78, 41.27 8.56 C44.31 12.33, 46.43 18.81, 46.16 23.71 C45.9 28.62, 43.05 34.25, 39.7 38.01 C36.35 41.76, 30.81 45.5, 26.08 46.27 C21.34 47.04, 15.54 45.37, 11.27 42.63 C7 39.9, 2.14 34.58, 0.47 29.85 C-1.21 25.11, -0.85 18.68, 1.22 14.24 C3.29 9.8, 8.29 5.49, 12.88 3.21 C17.47 0.92, 26.13 0.99, 28.76 0.52 C31.38 0.05, 28.75 -0.08, 28.63 0.4" stroke="#228be6" stroke-width="2" fill="none"></path></g><g transform="translate(297.40550783862454 121.35905011764362) rotate(0 6.8964691162109375 11.269617117759935)"><text x="6.8964691162109375" y="15.795495352252239" font-family="Virgil, Segoe UI Emoji" font-size="18.031387388415798px" fill="#228be6" text-anchor="middle" style="white-space: pre;" direction="ltr" dominant-baseline="alphabetic">8</text></g><g stroke-linecap="round" transform="translate(343.5362436700634 193.16013240414395) rotate(0 25.563739179294316 25.591906329363837)"><path d="M26.48 -0.68 C31.87 -0.77, 38.85 3.29, 42.9 6.96 C46.95 10.64, 50.19 15.9, 50.78 21.38 C51.37 26.86, 49.22 35.08, 46.46 39.83 C43.7 44.58, 39.32 48.2, 34.22 49.87 C29.13 51.54, 21.25 51.84, 15.9 49.85 C10.56 47.86, 4.64 42.78, 2.15 37.94 C-0.33 33.09, -0.19 26.16, 0.98 20.77 C2.14 15.38, 4.61 9.17, 9.13 5.59 C13.66 2.01, 24.43 -0.06, 28.15 -0.71 C31.86 -1.35, 31.52 1.2, 31.42 1.72 M34.18 0.53 C39.14 1.88, 44.16 6.11, 46.96 11.08 C49.77 16.04, 51.56 24.63, 51 30.33 C50.44 36.03, 47.98 41.83, 43.6 45.28 C39.23 48.72, 30.64 50.97, 24.75 51.01 C18.86 51.06, 12.17 48.78, 8.26 45.55 C4.34 42.32, 1.87 37.07, 1.25 31.64 C0.63 26.22, 1.79 18.19, 4.54 12.99 C7.29 7.79, 12.68 2.16, 17.74 0.43 C22.79 -1.31, 32.05 2.44, 34.87 2.58 C37.68 2.73, 34.91 1.2, 34.61 1.28" stroke="#228be6" stroke-width="2" fill="none"></path></g><g transform="translate(362.6236956267103 206.1558282245237) rotate(0 6.399993896484375 12.5)"><text x="6.399993896484375" y="17.52" font-family="Virgil, Segoe UI Emoji" font-size="20px" fill="#228be6" text-anchor="middle" style="white-space: pre;" direction="ltr" dominant-baseline="alphabetic">4</text></g><g stroke-linecap="round" transform="translate(112.78251380381698 285.8664684617197) rotate(0 25.563739179294316 25.591906329363837)"><path d="M35.01 2.86 C39.93 4.42, 44.73 8.49, 47.44 13.21 C50.14 17.94, 52.43 25.83, 51.23 31.2 C50.03 36.57, 44.74 42.15, 40.25 45.45 C35.76 48.74, 29.44 51.02, 24.26 50.95 C19.08 50.88, 13.27 48.66, 9.18 45.01 C5.1 41.36, 0.57 34.57, -0.25 29.05 C-1.06 23.52, 1.38 16.55, 4.3 11.86 C7.22 7.17, 12.12 2.62, 17.28 0.91 C22.43 -0.8, 32.03 1.2, 35.24 1.6 C38.44 1.99, 36.44 2.84, 36.53 3.26 M22 -0.77 C27.37 -1.82, 35.63 0.6, 40.52 3.73 C45.41 6.86, 49.92 12.39, 51.33 18.01 C52.75 23.63, 51.45 32.42, 48.99 37.45 C46.54 42.48, 41.85 46.2, 36.62 48.17 C31.39 50.14, 22.71 50.45, 17.6 49.27 C12.49 48.09, 8.96 45.47, 5.94 41.09 C2.92 36.7, -0.83 28.72, -0.52 22.96 C-0.22 17.21, 4 10.29, 7.76 6.57 C11.53 2.86, 19.68 1.58, 22.09 0.69 C24.49 -0.21, 21.99 0.92, 22.22 1.22" stroke="none" stroke-width="0" fill="#c2255c"></path><path d="M21.7 0.41 C26.87 -0.88, 33.57 1.13, 38.06 3.89 C42.55 6.66, 46.64 11.87, 48.64 17 C50.63 22.12, 51.83 29.51, 50.03 34.64 C48.22 39.77, 42.68 45.24, 37.8 47.78 C32.93 50.33, 25.93 50.76, 20.77 49.91 C15.6 49.06, 10.36 46.79, 6.8 42.68 C3.24 38.56, -0.58 30.84, -0.59 25.21 C-0.61 19.59, 2.51 13.09, 6.72 8.91 C10.93 4.73, 20.99 1.54, 24.68 0.13 C28.38 -1.29, 28.93 0.01, 28.89 0.44 M29.65 0.37 C34.39 1.09, 40.81 5.36, 44.53 9.91 C48.24 14.46, 51.69 22.24, 51.92 27.68 C52.15 33.12, 49.48 38.89, 45.9 42.56 C42.32 46.23, 35.93 48.7, 30.44 49.69 C24.95 50.68, 17.69 51.28, 12.96 48.49 C8.23 45.7, 3.93 38.48, 2.06 32.95 C0.19 27.41, -0.1 20.37, 1.74 15.29 C3.57 10.2, 8.47 4.71, 13.09 2.45 C17.7 0.18, 26.46 2.01, 29.44 1.7 C32.43 1.38, 30.63 0.51, 30.99 0.54" stroke="#228be6" stroke-width="2" fill="none"></path></g><g transform="translate(131.14996453976073 298.86216428209946) rotate(0 7.1199951171875 12.5)"><text x="7.1199951171875" y="17.52" font-family="Virgil, Segoe UI Emoji" font-size="20px" fill="#ffffff" text-anchor="middle" style="white-space: pre;" direction="ltr" dominant-baseline="alphabetic">2</text></g><g stroke-linecap="round" transform="translate(10 283.63860449104595) rotate(0 25.563739179294316 25.591906329363837)"><path d="M17.94 1.67 C22.96 -0.01, 31.2 -0.02, 36.48 2.02 C41.75 4.06, 47.38 9.08, 49.57 13.92 C51.76 18.77, 51.03 25.8, 49.62 31.12 C48.2 36.43, 45.43 42.52, 41.09 45.8 C36.76 49.08, 29.06 51.27, 23.63 50.8 C18.19 50.33, 12.49 46.68, 8.49 42.98 C4.48 39.29, 0.22 34.11, -0.42 28.63 C-1.05 23.14, 1.07 14.85, 4.67 10.09 C8.28 5.33, 17.96 1.52, 21.23 0.07 C24.51 -1.38, 24.1 1.01, 24.32 1.39 M25.6 -0.42 C30.51 -0.74, 37.15 1.75, 41.32 5.52 C45.48 9.29, 49.44 16.73, 50.61 22.2 C51.78 27.68, 51.22 33.91, 48.31 38.39 C45.41 42.86, 38.48 47.42, 33.21 49.04 C27.93 50.67, 21.84 49.98, 16.66 48.14 C11.48 46.31, 4.94 42.51, 2.12 38.05 C-0.7 33.6, -1.4 26.81, -0.26 21.41 C0.89 16.01, 4.35 9.18, 8.99 5.64 C13.64 2.09, 24.81 1.23, 27.62 0.13 C30.43 -0.98, 26.26 -1.58, 25.86 -0.97" stroke="#228be6" stroke-width="2" fill="none"></path></g><g transform="translate(30.10744859971328 296.6343003114257) rotate(0 5.379997253417969 12.5)"><text x="5.379997253417969" y="17.52" font-family="Virgil, Segoe UI Emoji" font-size="20px" fill="#228be6" text-anchor="middle" style="white-space: pre;" direction="ltr" dominant-baseline="alphabetic">7</text></g><g stroke-linecap="round"><g transform="translate(284.36256272892024 153.76420598276673) rotate(0 -13.59038434291324 22.135392346361186)"><path d="M1.18 -0.78 C-1.43 2.46, -10.59 11.97, -15.48 19.49 C-20.38 27.01, -26.33 40.41, -28.19 44.35 M0.35 1.42 C-2.42 4.33, -11.93 10.39, -16.29 17.77 C-20.65 25.15, -24.19 41.4, -25.83 45.71" stroke="#1971c2" stroke-width="2" fill="none"></path></g></g><mask></mask><g stroke-linecap="round" transform="translate(240.49395728813124 198.17790200146692) rotate(0 23.047484211914252 23.072878851640553)"><path d="M23.48 0.51 C28.16 0.33, 34.91 2.78, 38.62 5.95 C42.34 9.13, 45.05 14.69, 45.77 19.57 C46.48 24.44, 45.58 31.01, 42.93 35.21 C40.28 39.41, 34.57 43.19, 29.87 44.78 C25.17 46.36, 19.26 46.63, 14.71 44.72 C10.15 42.82, 4.93 37.83, 2.53 33.35 C0.12 28.86, -0.73 22.53, 0.28 17.79 C1.28 13.05, 4.58 7.88, 8.55 4.91 C12.51 1.95, 21.24 0.75, 24.04 0.01 C26.85 -0.73, 25.33 0.02, 25.38 0.49 M24.51 -0.11 C29.15 -0.1, 34.83 3.13, 38.42 6.4 C42.01 9.67, 45.39 14.61, 46.05 19.5 C46.7 24.4, 45.04 31.61, 42.34 35.77 C39.64 39.93, 34.62 42.94, 29.85 44.47 C25.08 46, 18.33 46.66, 13.72 44.96 C9.11 43.26, 4.42 38.78, 2.18 34.28 C-0.05 29.79, -0.86 22.82, 0.32 18 C1.5 13.18, 5.23 8.3, 9.27 5.38 C13.31 2.46, 22.16 1.36, 24.55 0.47 C26.94 -0.42, 23.57 -0.23, 23.61 0.03" stroke="#228be6" stroke-width="2" fill="none"></path></g><g transform="translate(255.16213373388564 210.16617463785678) rotate(0 8.582275390625 11.269617117759935)"><text x="8.582275390625" y="15.795495352252239" font-family="Virgil, Segoe UI Emoji" font-size="18.031387388415798px" fill="#228be6" text-anchor="middle" style="white-space: pre;" direction="ltr" dominant-baseline="alphabetic">13</text></g><g stroke-linecap="round"><g transform="translate(381.8561691432642 243.09132078216908) rotate(0 17.803872927029715 22.530057693486697)"><path d="M0 -0.84 C3.53 2.58, 14.68 11.86, 20.54 19.4 C26.41 26.93, 32.82 40.11, 35.21 44.36 M-1.46 1.33 C1.93 4.98, 13.43 13.15, 19.38 20.48 C25.33 27.81, 31.67 41.07, 34.23 45.31" stroke="#1971c2" stroke-width="2" fill="none"></path></g></g><mask></mask><g stroke-linecap="round" transform="translate(399.7677193957379 288.1340884048668) rotate(0 23.047484211914252 23.072878851640553)"><path d="M22.42 0.47 C27.08 -0.09, 32.92 1.75, 36.73 4.7 C40.54 7.65, 44.16 13.45, 45.27 18.2 C46.38 22.95, 45.65 28.86, 43.38 33.22 C41.12 37.58, 36.29 42.34, 31.69 44.37 C27.09 46.4, 20.42 46.81, 15.77 45.39 C11.12 43.96, 6.38 39.96, 3.79 35.82 C1.2 31.67, -0.36 25.5, 0.22 20.52 C0.79 15.53, 3.47 9.34, 7.23 5.89 C10.99 2.45, 20.11 0.69, 22.8 -0.14 C25.48 -0.97, 23.39 0.45, 23.35 0.92 M17.83 0.22 C22.42 -1.1, 29.33 -0.22, 33.74 2.27 C38.15 4.77, 42.42 10.43, 44.29 15.18 C46.16 19.94, 46.63 26.19, 44.97 30.82 C43.31 35.46, 38.65 40.62, 34.35 43.02 C30.06 45.42, 24.04 46.06, 19.2 45.22 C14.36 44.38, 8.4 41.55, 5.31 37.98 C2.22 34.42, 0.66 28.68, 0.68 23.82 C0.7 18.95, 2.45 12.59, 5.46 8.81 C8.46 5.03, 16.53 2.34, 18.72 1.14 C20.9 -0.07, 18.51 1.33, 18.58 1.58" stroke="#228be6" stroke-width="2" fill="none"></path></g><g transform="translate(414.4358958414923 300.1223610412567) rotate(0 8.582275390625 11.269617117759935)"><text x="8.582275390625" y="15.795495352252239" font-family="Virgil, Segoe UI Emoji" font-size="18.031387388415798px" fill="#228be6" text-anchor="middle" style="white-space: pre;" direction="ltr" dominant-baseline="alphabetic">13</text></g></svg>