<svg version="1.1" xmlns="http://www.w3.org/2000/svg" viewBox="0 0 413.7670566607421 352.61958236938773" width="413.7670566607421" height="352.61958236938773">
  <!-- svg-source:excalidraw -->
  
  <defs>
    <style class="style-fonts">
      @font-face {
        font-family: "Virgil";
        src: url("https://excalidraw.com/Virgil.woff2");
      }
      @font-face {
        font-family: "Cascadia";
        src: url("https://excalidraw.com/Cascadia.woff2");
      }
      @font-face {
        font-family: "Assistant";
nt-Regular.woff2");
      }
    </style>
    
  </defs>
  <g stroke-linecap="round"><g transform="translate(205.56437064106422 48.08780001125248) rotate(0 -25.768523948268808 30.83566084080799)"><path d="M-1.17 0.07 C-6.73 5.24, -24.74 21.51, -33.11 31.61 C-41.48 41.7, -48.47 55.47, -51.41 60.66 M0.42 -0.94 C-5.31 4.3, -25.21 22.21, -33.97 32.61 C-42.72 43.01, -49.41 56.76, -52.1 61.45" stroke="#1971c2" stroke-width="2" fill="none"></path></g></g><mask></mask><g stroke-linecap="round"><g transform="translate(246.7573025649267 52.545987842463745) rotate(0 26.98146117241845 29.497794845591642)"><path d="M0.18 -1.01 C5.58 2.95, 22.14 13.66, 31.23 23.84 C40.32 34.02, 50.97 54.12, 54.74 60.08 M-1.19 1.07 C4.17 5.14, 21.09 15.31, 30.35 24.85 C39.61 34.39, 50.43 52.89, 54.38 58.3" stroke="#1971c2" stroke-width="2" fill="none"></path></g></g><mask></mask><g stroke-linecap="round"><g transform="translate(135.49869095836493 154.00087143009267) rotate(0 -17.009317331667603 19.168433040268397)"><path d="M0.13 -1.01 C-4.08 2.9, -19.35 15.81, -25.06 22.46 C-30.77 29.11, -32.56 36.45, -34.13 38.9 M-1.26 1.07 C-5.57 4.76, -19.99 14.94, -25.6 20.9 C-31.22 26.87, -33.47 34.07, -34.95 36.86" stroke="#1971c2" stroke-width="2" fill="none"></path></g></g><mask></mask><g stroke-linecap="round"><g transform="translate(171.73577426676752 152.0871179727196) rotate(0 20.304797622603246 21.66723258664785)"><path d="M0.78 1.08 C5.78 5.06, 23.58 16, 30.15 22.85 C36.71 29.7, 38.35 38.63, 40.16 42.17 M-0.27 0.6 C4.55 4.31, 22.57 13.98, 29.14 21.02 C35.71 28.07, 37.11 39.39, 39.15 42.87" stroke="#1971c2" stroke-width="2" fill="none"></path></g></g><mask></mask><g stroke-linecap="round"><g transform="translate(329.24235582583583 152.03526936689403) rotate(0 17.24681384879989 20.07314082058584)"><path d="M-0.11 0.57 C2.36 3.16, 9.75 9.92, 15.58 16.63 C21.4 23.35, 31.61 36.96, 34.84 40.87 M-1.62 -0.18 C0.58 3.03, 8.41 11.04, 14.39 17.56 C20.37 24.07, 30.75 34.98, 34.26 38.9" stroke="#1971c2" stroke-width="2" fill="none"></path></g></g><mask></mask><g stroke-linecap="round"><g transform="translate(79.3088533401401 240.49828932631834) rotate(0 -16.00393692902321 21.502286858551745)"><path d="M-0.45 -1.17 C-4.05 2.38, -16.49 14.48, -21.67 21.83 C-26.85 29.18, -29.73 39.34, -31.55 42.91 M1.51 0.83 C-2.2 3.98, -16.84 12.86, -22.44 20.09 C-28.04 27.31, -30.37 40.11, -32.08 44.18" stroke="#1971c2" stroke-width="2" fill="none"></path></g></g><mask></mask><g stroke-linecap="round"><g transform="translate(111.90126523625759 242.2972284748902) rotate(0 18.828865473725045 21.150414082305268)"><path d="M0.35 0.72 C4.45 3.87, 18.06 10.75, 24.18 17.73 C30.31 24.7, 34.9 38.67, 37.08 42.58 M-0.93 0.05 C3.1 3.5, 17.32 11.88, 23.48 19.22 C29.63 26.55, 33.71 40.3, 36.01 44.05" stroke="#1971c2" stroke-width="2" fill="none"></path></g></g><mask></mask><g stroke-linecap="round"><g transform="translate(242.34994809668842 239.13678272358942) rotate(0 17.21429241695421 25.993357911435712)"><path d="M0.46 -0.09 C3.22 4.45, 11.34 19.45, 16.93 27.95 C22.53 36.45, 31.04 46.85, 34.01 50.89 M-0.76 -1.18 C2.37 2.91, 13.71 17.17, 19.34 25.98 C24.97 34.78, 30.38 47.07, 33.02 51.64" stroke="#1971c2" stroke-width="2" fill="none"></path></g></g><mask></mask><g stroke-linecap="round" transform="translate(202.67074749087487 9.999999999999972) rotate(0 24.557734602936307 24.5)"><path d="M21.96 -0.36 C27.01 -1.07, 34.35 1.59, 38.68 4.66 C43.01 7.74, 46.65 13.17, 47.95 18.11 C49.24 23.05, 48.53 29.55, 46.44 34.3 C44.36 39.06, 40.11 44.39, 35.44 46.65 C30.77 48.9, 23.59 49.1, 18.42 47.85 C13.25 46.61, 7.44 43.42, 4.42 39.17 C1.39 34.92, -0.24 27.69, 0.27 22.35 C0.77 17.01, 3.75 10.81, 7.46 7.14 C11.18 3.47, 19.98 1.45, 22.55 0.34 C25.12 -0.77, 22.86 0.07, 22.89 0.48 M23.75 0.7 C28.69 0.04, 34.77 1.34, 38.9 4.28 C43.03 7.22, 47.29 13.14, 48.55 18.36 C49.8 23.57, 48.7 30.71, 46.4 35.56 C44.11 40.41, 39.59 45.38, 34.77 47.45 C29.94 49.52, 22.58 49.65, 17.47 47.99 C12.35 46.32, 7.05 41.95, 4.08 37.44 C1.12 32.93, -0.84 26.15, -0.32 20.93 C0.2 15.71, 3.31 9.69, 7.22 6.1 C11.12 2.52, 20.37 0.45, 23.13 -0.58 C25.89 -1.62, 23.74 -0.67, 23.79 -0.1" stroke="#228be6" stroke-width="2" fill="none"></path></g><g transform="translate(217.77354508760482 22.17588386092956) rotate(0 9.589996337890625 12.5)"><text x="9.589996337890625" y="17.52" font-family="Virgil, Segoe UI Emoji" font-size="20px" fill="#228be6" text-anchor="middle" style="white-space: pre;" direction="ltr" dominant-baseline="alphabetic">10</text></g><g stroke-linecap="round" transform="translate(130.13152367343332 111.2092162261373) rotate(0 23.47768808975809 24.5)"><path d="M17.61 0.93 C22.05 -0.68, 28.74 -0.07, 33.34 2.22 C37.94 4.5, 43.1 9.88, 45.2 14.66 C47.3 19.45, 47.44 25.84, 45.97 30.94 C44.5 36.04, 40.5 42.31, 36.36 45.24 C32.22 48.18, 26.04 49.23, 21.15 48.57 C16.26 47.9, 10.53 44.93, 7.01 41.23 C3.48 37.54, 0.45 31.6, 0 26.4 C-0.45 21.19, 1.24 14.25, 4.31 9.99 C7.38 5.72, 15.95 2.35, 18.42 0.81 C20.89 -0.72, 19.06 0.37, 19.13 0.79 M28.65 0.06 C33.42 0.94, 38.89 5.3, 42.02 9.63 C45.15 13.95, 47.65 20.77, 47.44 26.01 C47.23 31.26, 44.24 37.37, 40.76 41.08 C37.29 44.79, 31.66 47.73, 26.6 48.29 C21.53 48.85, 14.7 47.29, 10.37 44.46 C6.03 41.63, 2.01 36.3, 0.57 31.3 C-0.86 26.31, -0.35 19.36, 1.76 14.5 C3.87 9.64, 8.76 4.4, 13.25 2.13 C17.74 -0.13, 26.12 0.97, 28.7 0.91 C31.28 0.85, 28.74 1.54, 28.73 1.76" stroke="#228be6" stroke-width="2" fill="none"></path></g><g transform="translate(147.3279866325595 123.38510008706689) rotate(0 6.17999267578125 12.5)"><text x="6.17999267578125" y="17.52" font-family="Virgil, Segoe UI Emoji" font-size="20px" fill="#228be6" text-anchor="middle" style="white-space: pre;" direction="ltr" dominant-baseline="alphabetic">5</text></g><g stroke-linecap="round" transform="translate(198.15178287872504 194.13421089905387) rotate(0 25.56373917929443 25.591906329363887)"><path d="M31.64 0.74 C36.94 1.53, 42.58 4.82, 45.76 9.29 C48.94 13.75, 50.89 22.04, 50.73 27.55 C50.56 33.05, 48.26 38.51, 44.77 42.34 C41.28 46.16, 35.3 49.62, 29.78 50.51 C24.27 51.4, 16.51 50.56, 11.67 47.67 C6.83 44.77, 2.39 38.36, 0.74 33.13 C-0.91 27.9, -0.36 21.35, 1.78 16.27 C3.92 11.19, 8.3 5.01, 13.58 2.65 C18.86 0.3, 29.58 2.19, 33.47 2.14 C37.36 2.09, 37.14 2.06, 36.92 2.35 M17.86 2.41 C22.67 0.32, 29.3 0.03, 34.29 1.6 C39.29 3.17, 45.26 7.31, 47.84 11.82 C50.41 16.33, 50.9 23.29, 49.75 28.67 C48.6 34.05, 45 40.55, 40.95 44.1 C36.91 47.64, 30.58 49.97, 25.47 49.94 C20.37 49.91, 14.46 47.13, 10.32 43.91 C6.18 40.7, 1.71 35.62, 0.65 30.67 C-0.41 25.71, 1.08 19.26, 3.97 14.18 C6.86 9.09, 16.02 2.27, 17.99 0.14 C19.96 -1.99, 15.61 0.92, 15.79 1.39" stroke="#228be6" stroke-width="2" fill="none"></path></g><g transform="translate(216.51923361466856 207.12990671943362) rotate(0 7.1199951171875 12.5)"><text x="7.1199951171875" y="17.52" font-family="Virgil, Segoe UI Emoji" font-size="20px" fill="#228be6" text-anchor="middle" style="white-space: pre;" direction="ltr" dominant-baseline="alphabetic">2</text></g><g stroke-linecap="round" transform="translate(72.46675863676342 194.02663051550073) rotate(0 25.56373917929443 25.591906329363887)"><path d="M26.75 0.83 C32.04 0.85, 39.36 2.87, 43.55 6.44 C47.74 10.01, 51.36 16.59, 51.9 22.23 C52.43 27.86, 50.02 35.6, 46.77 40.23 C43.52 44.87, 37.66 48.47, 32.4 50.02 C27.13 51.58, 20.18 51.79, 15.19 49.58 C10.2 47.38, 4.92 41.66, 2.46 36.8 C0 31.94, -1.04 25.78, 0.42 20.41 C1.88 15.04, 6.3 7.85, 11.23 4.56 C16.16 1.27, 26.3 1.09, 30.01 0.65 C33.72 0.21, 33.43 1.41, 33.48 1.92 M33.06 0.09 C37.98 1.04, 43.15 5.6, 45.96 10.17 C48.78 14.73, 50.42 22.02, 49.93 27.49 C49.44 32.96, 46.63 39.26, 43.01 42.99 C39.4 46.73, 33.63 49.25, 28.22 49.88 C22.8 50.51, 15.03 49.59, 10.53 46.75 C6.03 43.92, 2.32 38.54, 1.21 32.86 C0.1 27.18, 1.71 17.91, 3.89 12.67 C6.06 7.44, 9.18 3.54, 14.25 1.45 C19.31 -0.65, 31.21 0.29, 34.28 0.11 C37.35 -0.08, 32.97 -0.14, 32.66 0.34" stroke="#228be6" stroke-width="2" fill="none"></path></g><g transform="translate(91.14420693130069 207.02232633588048) rotate(0 6.80999755859375 12.5)"><text x="6.80999755859375" y="17.52" font-family="Virgil, Segoe UI Emoji" font-size="20px" fill="#228be6" text-anchor="middle" style="white-space: pre;" direction="ltr" dominant-baseline="alphabetic">3</text></g><g stroke-linecap="round" transform="translate(291.3378834272271 108.2771001253355) rotate(0 23.047484211914025 23.072878851640525)"><path d="M28 0.21 C32.62 0.93, 37.98 5, 40.96 8.88 C43.94 12.76, 45.99 18.57, 45.87 23.51 C45.76 28.45, 43.53 34.83, 40.29 38.54 C37.06 42.25, 31.34 44.99, 26.45 45.77 C21.56 46.55, 15.09 45.78, 10.96 43.2 C6.83 40.62, 3.3 35.01, 1.66 30.27 C0.03 25.53, -0.48 19.36, 1.17 14.78 C2.83 10.2, 7.11 5.11, 11.6 2.79 C16.09 0.48, 25.25 1.18, 28.12 0.9 C30.99 0.62, 28.91 0.8, 28.83 1.12 M18.71 -0.24 C23.36 -1.3, 30.25 0.07, 34.69 2.56 C39.14 5.05, 43.69 9.9, 45.37 14.72 C47.05 19.53, 46.56 26.61, 44.78 31.46 C43 36.32, 38.9 41.58, 34.68 43.84 C30.46 46.11, 24.45 46.13, 19.44 45.07 C14.44 44, 7.79 41.23, 4.66 37.45 C1.54 33.68, 0.54 27.4, 0.67 22.4 C0.8 17.41, 2.33 11.21, 5.44 7.49 C8.55 3.77, 16.95 1.06, 19.33 0.06 C21.71 -0.95, 19.63 0.97, 19.74 1.45" stroke="#228be6" stroke-width="2" fill="none"></path></g><g transform="translate(304.7439596532554 120.26537276172544) rotate(0 9.844375610351562 11.269617117759871)"><text x="9.844375610351562" y="15.795495352252239" font-family="Virgil, Segoe UI Emoji" font-size="18.031387388415798px" fill="#228be6" text-anchor="middle" style="white-space: pre;" direction="ltr" dominant-baseline="alphabetic">-3</text></g><g stroke-linecap="round" transform="translate(352.63957830215304 189.7179168697578) rotate(0 25.56373917929443 25.591906329363887)"><path d="M19.24 0.58 C24.22 -0.93, 31.93 0.8, 36.86 3.24 C41.79 5.69, 46.66 10.17, 48.81 15.25 C50.96 20.33, 51.16 28.52, 49.77 33.73 C48.38 38.94, 45.14 43.61, 40.48 46.51 C35.82 49.41, 27.51 51.7, 21.81 51.12 C16.11 50.54, 9.89 46.93, 6.27 43.04 C2.65 39.14, 0.2 33.21, 0.09 27.75 C-0.01 22.29, 1.63 14.88, 5.65 10.28 C9.67 5.67, 20.48 1.82, 24.21 0.12 C27.93 -1.59, 28.13 -0.25, 27.99 0.05 M17.48 0.49 C22.26 -1.39, 28.94 -0.19, 34.02 2.01 C39.09 4.21, 44.94 9.35, 47.93 13.69 C50.93 18.03, 53.1 22.98, 51.98 28.06 C50.86 33.14, 45.29 40.49, 41.21 44.18 C37.13 47.87, 32.79 50.17, 27.49 50.19 C22.2 50.22, 13.92 47.69, 9.46 44.34 C5 40.99, 1.62 35.04, 0.72 30.09 C-0.19 25.14, 1.3 19.27, 4.02 14.66 C6.74 10.06, 14.8 4.75, 17.03 2.44 C19.26 0.12, 17.29 0.41, 17.41 0.77" stroke="#228be6" stroke-width="2" fill="none"></path></g><g transform="translate(372.70702598633875 202.71361269013755) rotate(0 5.4199981689453125 12.5)"><text x="5.4199981689453125" y="17.52" font-family="Virgil, Segoe UI Emoji" font-size="20px" fill="#228be6" text-anchor="middle" style="white-space: pre;" direction="ltr" dominant-baseline="alphabetic">11</text></g><g stroke-linecap="round" transform="translate(257.21701231203247 291.43576971065994) rotate(0 25.56373917929443 25.591906329363887)"><path d="M23.99 -0.18 C29.15 -0.73, 36.1 2.68, 40.66 5.94 C45.22 9.2, 50.19 14.13, 51.34 19.36 C52.5 24.59, 50.31 32.37, 47.57 37.32 C44.82 42.26, 39.77 46.79, 34.86 49.03 C29.96 51.27, 23.17 52.33, 18.15 50.75 C13.12 49.16, 7.7 44.21, 4.71 39.51 C1.73 34.81, -0.24 28.11, 0.22 22.56 C0.68 17.01, 3.14 10.09, 7.46 6.23 C11.77 2.36, 22.51 0.26, 26.1 -0.64 C29.69 -1.54, 29.01 0.15, 29 0.82 M15.65 3.64 C20.41 0.87, 28.73 -1.58, 33.7 -0.42 C38.68 0.74, 42.39 6, 45.5 10.61 C48.6 15.22, 52.71 21.88, 52.33 27.23 C51.96 32.58, 47.35 38.84, 43.23 42.73 C39.11 46.62, 32.92 49.77, 27.62 50.59 C22.33 51.42, 15.81 50.69, 11.46 47.68 C7.11 44.67, 2.86 38.31, 1.53 32.52 C0.21 26.74, 1.17 17.93, 3.52 12.97 C5.88 8, 13.47 4.22, 15.67 2.74 C17.86 1.26, 16.48 3.79, 16.7 4.09" stroke="#228be6" stroke-width="2" fill="none"></path></g><g transform="translate(279.99445908069083 304.4314655310397) rotate(0 2.7099990844726562 12.5)"><text x="2.7099990844726562" y="17.52" font-family="Virgil, Segoe UI Emoji" font-size="20px" fill="#228be6" text-anchor="middle" style="white-space: pre;" direction="ltr" dominant-baseline="alphabetic">1</text></g><g stroke-linecap="round" transform="translate(125.53104012739709 285.8664684617199) rotate(0 25.56373917929443 25.591906329363887)"><path d="M23.7 -0.32 C28.76 -1.31, 34.74 1.34, 39.02 4.45 C43.31 7.56, 47.76 13, 49.42 18.36 C51.08 23.72, 51 31.59, 49 36.62 C46.99 41.65, 42.34 46.22, 37.41 48.54 C32.49 50.85, 25 51.94, 19.47 50.52 C13.95 49.1, 7.65 44.59, 4.25 40.03 C0.86 35.48, -1.23 28.56, -0.87 23.19 C-0.52 17.82, 1.99 11.55, 6.38 7.82 C10.78 4.09, 21.74 1.95, 25.49 0.82 C29.23 -0.31, 28.67 0.68, 28.87 1.04 M35.87 2.12 C40.69 4.25, 48.07 9.6, 50.41 14.54 C52.74 19.48, 51.68 26.44, 49.9 31.76 C48.13 37.09, 44.19 43.05, 39.77 46.49 C35.36 49.92, 28.76 52.81, 23.41 52.36 C18.06 51.91, 11.42 48.26, 7.68 43.79 C3.95 39.32, 1.34 31.06, 1 25.56 C0.66 20.05, 2.3 14.68, 5.65 10.76 C9 6.85, 15.73 3.41, 21.11 2.06 C26.48 0.71, 35.35 2.73, 37.89 2.69 C40.43 2.64, 36.64 1.37, 36.37 1.78" stroke="#228be6" stroke-width="2" fill="none"></path></g><g transform="translate(139.78849788238358 298.8621642820996) rotate(0 11.229988098144531 12.5)"><text x="11.229988098144531" y="17.52" font-family="Virgil, Segoe UI Emoji" font-size="20px" fill="#228be6" text-anchor="middle" style="white-space: pre;" direction="ltr" dominant-baseline="alphabetic">-2</text></g><g stroke-linecap="round" transform="translate(10 285.2098225738185) rotate(0 25.56373917929443 25.591906329363887)"><path d="M19 0.57 C24.13 -0.85, 32.01 0.93, 37.11 3.41 C42.22 5.89, 47.47 10.52, 49.63 15.45 C51.79 20.39, 51.86 27.89, 50.08 33.04 C48.29 38.19, 43.66 43.45, 38.92 46.33 C34.18 49.22, 27.09 50.87, 21.64 50.33 C16.18 49.79, 9.94 46.84, 6.21 43.09 C2.47 39.35, -0.46 33.3, -0.79 27.86 C-1.12 22.42, -0.56 15.04, 4.23 10.46 C9.03 5.89, 22.69 1.65, 27.97 0.43 C33.25 -0.79, 36.19 2.89, 35.93 3.12 M20.12 -0.67 C24.96 -2, 32.78 -0.54, 37.79 2.47 C42.79 5.48, 48.01 12.07, 50.15 17.36 C52.29 22.65, 52.32 29.44, 50.64 34.19 C48.96 38.93, 44.75 42.96, 40.07 45.84 C35.39 48.72, 27.91 51.73, 22.56 51.44 C17.2 51.15, 11.56 48.27, 7.94 44.1 C4.31 39.93, 1.31 32.37, 0.81 26.42 C0.3 20.47, 1.63 12.7, 4.92 8.4 C8.21 4.11, 17.82 1.64, 20.53 0.65 C23.24 -0.34, 20.9 2.2, 21.18 2.48" stroke="#228be6" stroke-width="2" fill="none"></path></g><g transform="translate(28.67744829453727 298.20551839419824) rotate(0 6.80999755859375 12.5)"><text x="6.80999755859375" y="17.52" font-family="Virgil, Segoe UI Emoji" font-size="20px" fill="#228be6" text-anchor="middle" style="white-space: pre;" direction="ltr" dominant-baseline="alphabetic">3</text></g></svg>