<svg version="1.1" xmlns="http://www.w3.org/2000/svg" viewBox="0 0 423.70450113059746 373.8092622694698" width="423.70450113059746" height="373.8092622694698">
  <!-- svg-source:excalidraw -->
  
  <defs>
    <style class="style-fonts">
      @font-face {
        font-family: "Virgil";
        src: url("https://excalidraw.com/Virgil.woff2");
      }
      @font-face {
        font-family: "Cascadia";
        src: url("https://excalidraw.com/Cascadia.woff2");
      }
      @font-face {
        font-family: "Assistant";
        src: url("https://excalidraw.com/Assistant-Regular.woff2");
      }
    </style>
    
  </defs>
  <g stroke-linecap="round"><g transform="translate(209.08901786501883 48.08780001125252) rotate(0 -25.768523948268808 30.835660840807993)"><path d="M-0.24 0.69 C-5.82 6.19, -25 21.67, -33.44 31.86 C-41.88 42.05, -47.88 56.94, -50.86 61.82 M-1.82 0.01 C-7.57 5.74, -26.22 22.46, -34.47 32.99 C-42.71 43.53, -48.53 58.39, -51.28 63.22" stroke="#1971c2" stroke-width="2" fill="none"></path></g></g><mask></mask><g stroke-linecap="round"><g transform="translate(250.2819497888812 52.545987842463774) rotate(0 26.981461172418392 29.497794845591642)"><path d="M-0.15 -0.76 C5.18 3.29, 22.72 15.13, 31.77 25 C40.82 34.87, 50.67 52.73, 54.17 58.47 M-1.69 1.45 C3.57 5.66, 21.98 16.95, 31.18 26.62 C40.38 36.3, 49.97 53.82, 53.51 59.5" stroke="#1971c2" stroke-width="2" fill="none"></path></g></g><mask></mask><g stroke-linecap="round"><g transform="translate(139.3809318300158 154.0008714300927) rotate(0 -20.672752857298406 25.373823293217583)"><path d="M0.67 0.15 C-2.82 4.21, -13.89 15.05, -21.09 23.55 C-28.28 32.05, -39.02 46.79, -42.51 51.16 M-0.43 -0.81 C-4.05 3.47, -15.29 16.5, -21.92 24.81 C-28.56 33.12, -36.86 44.78, -40.23 49.03" stroke="#1971c2" stroke-width="2" fill="none"></path></g></g><mask></mask><g stroke-linecap="round"><g transform="translate(175.4392183145702 152.26866551693467) rotate(0 23.117064418943187 28.62034538618451)"><path d="M0.21 -0.53 C3.8 4.62, 14.65 21.62, 22.21 31.08 C29.77 40.54, 41.61 51.74, 45.55 56.24 M-1.14 1.81 C2.74 6.58, 16.71 19.97, 24.31 29.17 C31.91 38.38, 40.83 52.56, 44.43 57.03" stroke="#1971c2" stroke-width="2" fill="none"></path></g></g><mask></mask><g stroke-linecap="round"><g transform="translate(330.88090188959563 149.82736895661904) rotate(0 15.941422673530042 21.802886395716257)"><path d="M-1.17 0.41 C1.67 3.67, 11.79 11.67, 17.24 19.01 C22.69 26.36, 29.06 40.43, 31.53 44.47 M0.42 -0.42 C3.63 3, 14.57 12.86, 19.59 20.02 C24.62 27.19, 28.44 38.56, 30.58 42.58" stroke="#1971c2" stroke-width="2" fill="none"></path></g></g><mask></mask><g stroke-linecap="round"><g transform="translate(76.14060967939247 249.2117711518577) rotate(0 -15.996744843127601 22.02633167771407)"><path d="M-0.68 -1 C-3.51 2.96, -12.95 16.7, -18.14 24.15 C-23.33 31.6, -29.32 40.21, -31.81 43.68 M1.17 1.09 C-1.75 4.68, -13.67 15.2, -19.28 22.48 C-24.88 29.77, -30.12 41.4, -32.47 44.8" stroke="#1971c2" stroke-width="2" fill="none"></path></g></g><mask></mask><g stroke-linecap="round"><g transform="translate(111.96103042497475 251.37264805424718) rotate(0 18.159204695818175 23.134042925844852)"><path d="M-0.35 0.86 C3.39 4.53, 15.87 13.28, 21.8 21 C27.73 28.72, 32.65 42.85, 35.23 47.18 M1.66 0.27 C5.33 4.2, 14.97 14.83, 20.95 22.34 C26.93 29.85, 34.7 41.57, 37.56 45.32" stroke="#1971c2" stroke-width="2" fill="none"></path></g></g><mask></mask><g stroke-linecap="round"><g transform="translate(251.69291181159167 254.47951168245748) rotate(0 12.51405512221777 15.200356875306056)"><path d="M0.19 -0.37 C4.24 4.7, 19.63 26.06, 23.94 31.32 M-1.17 -1.61 C3.26 3.06, 21.59 24.54, 26.08 29.67" stroke="#1971c2" stroke-width="2" fill="none"></path></g></g><mask></mask><g stroke-linecap="round" transform="translate(72.61864440625982 79.26361326506341) rotate(23.660442362977236 53.51015785673172 105.6779101591138)"><path d="M67.74 6.19 C74.45 8.2, 82.14 15.39, 87.67 24.3 C93.2 33.2, 98.02 46.27, 100.95 59.63 C103.87 72.98, 104.69 90.31, 105.22 104.43 C105.76 118.56, 106.7 131.21, 104.15 144.37 C101.59 157.53, 95.68 173.34, 89.89 183.39 C84.09 193.44, 75.98 200.02, 69.39 204.68 C62.81 209.34, 57.43 212.34, 50.4 211.35 C43.36 210.37, 33.86 205.61, 27.2 198.77 C20.54 191.93, 14.83 182, 10.42 170.31 C6 158.63, 2 142.63, 0.69 128.67 C-0.62 114.71, 0.91 100.47, 2.57 86.56 C4.22 72.66, 7.08 56.88, 10.59 45.24 C14.11 33.6, 17.49 23.88, 23.67 16.73 C29.85 9.57, 35.96 -0.23, 47.67 2.29 C59.39 4.81, 84.51 18.88, 93.97 31.83 C103.43 44.78, 105.36 78.8, 104.44 79.98 M34 10.13 C40.47 3.13, 51.02 -2.29, 57.79 -2.69 C64.55 -3.09, 68.13 1.12, 74.61 7.73 C81.1 14.34, 91.4 25.29, 96.69 36.98 C101.98 48.66, 105.14 64.22, 106.38 77.84 C107.62 91.47, 105.82 104.98, 104.15 118.73 C102.48 132.48, 99.93 148.38, 96.35 160.37 C92.76 172.35, 88.49 182.8, 82.66 190.66 C76.82 198.52, 68.42 205.08, 61.34 207.53 C54.26 209.98, 46.52 208.1, 40.2 205.37 C33.87 202.64, 29.38 199.07, 23.38 191.16 C17.38 183.26, 8.11 171.17, 4.2 157.96 C0.29 144.74, 0.15 126.76, -0.09 111.88 C-0.32 97, 0.22 81.98, 2.78 68.68 C5.34 55.37, 10.47 42.18, 15.29 32.05 C20.11 21.91, 28.52 11.48, 31.69 7.87 C34.86 4.26, 33.67 8.79, 34.29 10.38" stroke="#ff0000" stroke-width="2" fill="none"></path></g><g stroke-linecap="round" transform="translate(175.51560167531284 72.39975234019008) rotate(322.66794233430187 51.43426359233791 160.23706256865347)"><path d="M57.21 -0.57 C63.06 -1.33, 68.23 7.83, 73.44 15.75 C78.65 23.67, 84.37 34.14, 88.47 46.96 C92.58 59.79, 95.9 76.01, 98.09 92.73 C100.29 109.46, 101.23 129.46, 101.64 147.31 C102.05 165.17, 102.02 182.62, 100.55 199.88 C99.08 217.13, 96.36 235.43, 92.83 250.87 C89.3 266.3, 83.8 282.12, 79.36 292.47 C74.92 302.82, 71.63 308.23, 66.2 312.97 C60.77 317.71, 53.15 322.22, 46.78 320.92 C40.41 319.61, 33.06 312.89, 27.99 305.14 C22.92 297.39, 20.34 287.12, 16.37 274.42 C12.41 261.72, 6.99 245.43, 4.19 228.92 C1.4 212.41, 0.15 193.85, -0.39 175.35 C-0.94 156.86, -0.96 135.62, 0.91 117.93 C2.78 100.24, 7.16 84.04, 10.82 69.2 C14.48 54.37, 18.69 39.31, 22.88 28.92 C27.07 18.53, 29.1 10.78, 35.96 6.87 C42.82 2.96, 58.17 4.52, 64.04 5.46 C69.91 6.4, 71.57 10.45, 71.18 12.52 M49.38 -0.37 C55.39 -3.07, 61.57 4.57, 67.56 9.68 C73.54 14.79, 81.12 20.03, 85.29 30.28 C89.46 40.54, 89.48 55.44, 92.59 71.21 C95.7 86.98, 102.05 106.34, 103.94 124.91 C105.83 143.48, 105.45 164.66, 103.91 182.63 C102.37 200.61, 98.09 217.02, 94.71 232.79 C91.32 248.56, 87.66 265.09, 83.58 277.26 C79.5 289.43, 75.49 298.97, 70.24 305.79 C64.99 312.6, 57.89 317.42, 52.09 318.15 C46.3 318.88, 40.35 314.96, 35.47 310.17 C30.6 305.39, 27.76 299.67, 22.84 289.45 C17.91 279.22, 9.57 264.8, 5.93 248.82 C2.29 232.83, 1.98 211.96, 1 193.54 C0.02 175.12, -0.82 156.22, 0.05 138.28 C0.91 120.34, 3.68 101.91, 6.18 85.91 C8.68 69.9, 10.69 54.41, 15.04 42.24 C19.39 30.06, 26.59 19.89, 32.29 12.85 C37.99 5.82, 46.49 1.86, 49.25 0.01 C52.01 -1.85, 49 -1.34, 48.85 1.73" stroke="#2f9e44" stroke-width="2" fill="none"></path></g><g stroke-linecap="round" transform="translate(301.24912270376944 83.42893061533536) rotate(328.81736710178745 46.79923240731989 100.49999406670925)"><path d="M73.76 17.71 C79.36 24.21, 83.73 39.65, 87.21 51.39 C90.69 63.12, 93.92 74.99, 94.65 88.12 C95.37 101.24, 93.84 116.66, 91.56 130.12 C89.28 143.57, 85.4 158.43, 80.97 168.83 C76.54 179.24, 70.45 187.05, 64.98 192.55 C59.51 198.05, 54.21 201.82, 48.15 201.84 C42.09 201.87, 34.44 198.48, 28.6 192.71 C22.77 186.93, 17.19 177.39, 13.12 167.19 C9.06 156.99, 6.52 144.42, 4.19 131.51 C1.86 118.6, -1.07 103.47, -0.86 89.72 C-0.64 75.97, 1.93 60.49, 5.48 49 C9.04 37.51, 15.57 28.62, 20.48 20.77 C25.39 12.92, 28.82 5.34, 34.95 1.9 C41.07 -1.54, 49.22 -6.18, 57.24 0.14 C65.25 6.46, 77.63 29.25, 83.05 39.82 C88.47 50.39, 90.25 62.82, 89.78 63.56 M58.18 2.19 C64.71 3.42, 71.03 9.32, 75.34 17.37 C79.64 25.41, 80.74 38.32, 84 50.46 C87.26 62.61, 93.24 77.35, 94.89 90.26 C96.55 103.17, 96.08 115.69, 93.93 127.92 C91.78 140.15, 86.58 153.42, 82 163.66 C77.43 173.9, 72.4 183.12, 66.48 189.38 C60.57 195.64, 52.91 200.49, 46.5 201.22 C40.09 201.94, 33.29 198.67, 28.03 193.75 C22.76 188.83, 19.61 182.13, 14.91 171.69 C10.21 161.25, 2.74 144.04, -0.18 131.11 C-3.11 118.18, -3.56 107.1, -2.64 94.14 C-1.72 81.17, 1.53 66.04, 5.34 53.34 C9.15 40.64, 15.29 26.82, 20.22 17.92 C25.15 9.03, 29.17 2.8, 34.91 -0.04 C40.65 -2.87, 51.64 0.54, 54.66 0.91 C57.69 1.28, 53.41 0.46, 53.07 2.17" stroke="#ff0000" stroke-width="2" fill="none"></path></g><g stroke-linecap="round" transform="translate(206.19539471482926 10) rotate(0 24.557734602936307 24.5)"><path d="M26.35 -0.31 C31.44 -0.37, 38.01 2.92, 41.87 6.67 C45.72 10.41, 48.9 16.85, 49.48 22.17 C50.05 27.49, 48.37 34.22, 45.33 38.61 C42.28 43, 36.33 47.17, 31.19 48.51 C26.05 49.85, 19.33 48.93, 14.49 46.65 C9.66 44.36, 4.43 39.57, 2.18 34.8 C-0.06 30.03, -0.25 23.04, 1.02 18.04 C2.29 13.03, 5.56 7.82, 9.8 4.77 C14.04 1.72, 23.57 0.37, 26.45 -0.26 C29.33 -0.88, 27 0.62, 27.11 1.02 M27.11 0.81 C32.07 0.98, 38.31 3.99, 41.89 7.78 C45.47 11.56, 48.21 18.26, 48.58 23.53 C48.96 28.79, 47.25 35.34, 44.15 39.38 C41.04 43.42, 35.13 46.48, 29.96 47.77 C24.79 49.06, 17.9 49.29, 13.14 47.11 C8.39 44.94, 3.55 39.53, 1.41 34.73 C-0.72 29.92, -1.38 23.39, 0.31 18.26 C2 13.12, 6.99 6.94, 11.55 3.92 C16.11 0.9, 25.01 0.79, 27.67 0.16 C30.32 -0.47, 27.67 -0.26, 27.48 0.14" stroke="#228be6" stroke-width="2" fill="none"></path></g><g transform="translate(221.2981923115592 22.175883860929584) rotate(0 9.589996337890625 12.5)"><text x="9.589996337890625" y="17.52" font-family="Virgil, Segoe UI Emoji" font-size="20px" fill="#228be6" text-anchor="middle" style="white-space: pre;" direction="ltr" dominant-baseline="alphabetic">10</text></g><g stroke-linecap="round" transform="translate(133.65617089738782 111.20921622613733) rotate(0 23.47768808975809 24.5)"><path d="M28.69 0.26 C33.51 1.11, 39.45 5.39, 42.58 9.65 C45.7 13.92, 47.72 20.54, 47.43 25.84 C47.13 31.14, 44.28 37.66, 40.81 41.46 C37.34 45.25, 31.65 48.05, 26.62 48.62 C21.59 49.19, 14.85 47.72, 10.64 44.87 C6.43 42.01, 2.89 36.42, 1.34 31.49 C-0.21 26.57, -0.47 20.17, 1.34 15.32 C3.14 10.48, 7.56 4.78, 12.15 2.41 C16.74 0.03, 25.89 1.32, 28.86 1.08 C31.83 0.84, 29.98 0.62, 29.97 0.94 M27.67 0.68 C32.36 1.34, 38.15 5.67, 41.33 9.8 C44.51 13.93, 46.85 20.39, 46.75 25.45 C46.64 30.51, 44.07 36.16, 40.69 40.15 C37.31 44.14, 31.49 48.43, 26.48 49.37 C21.46 50.31, 14.93 48.54, 10.61 45.8 C6.29 43.07, 1.95 38.04, 0.56 32.97 C-0.84 27.9, 0.21 20.38, 2.23 15.38 C4.24 10.39, 8.27 5.58, 12.63 3.01 C16.99 0.44, 25.89 0.33, 28.38 -0.01 C30.87 -0.35, 27.82 0.4, 27.58 0.98" stroke="#228be6" stroke-width="2" fill="none"></path></g><g transform="translate(150.8526338565141 123.38510008706692) rotate(0 6.17999267578125 12.5)"><text x="6.17999267578125" y="17.52" font-family="Virgil, Segoe UI Emoji" font-size="20px" fill="#228be6" text-anchor="middle" style="white-space: pre;" direction="ltr" dominant-baseline="alphabetic">5</text></g><g stroke-linecap="round" transform="translate(205.37336497567162 208.0203528375587) rotate(0 25.563739179294487 25.59190632936388)"><path d="M18.29 1.39 C23.2 -0.28, 31.64 0.84, 36.67 3.18 C41.7 5.52, 46.23 10.71, 48.48 15.41 C50.72 20.11, 51.41 26.08, 50.12 31.38 C48.83 36.68, 45.37 43.95, 40.74 47.21 C36.1 50.47, 27.88 51.68, 22.3 50.93 C16.72 50.18, 10.87 46.69, 7.25 42.72 C3.63 38.75, 1.09 32.47, 0.58 27.12 C0.08 21.77, 0.83 14.98, 4.21 10.6 C7.6 6.22, 17.82 2.53, 20.87 0.85 C23.92 -0.82, 22.59 0.16, 22.49 0.53 M19.02 1.34 C24.02 -0.18, 31.6 -0.21, 36.64 2.25 C41.68 4.71, 46.99 11.31, 49.27 16.12 C51.56 20.93, 52.01 26.05, 50.34 31.12 C48.68 36.2, 43.73 43.02, 39.3 46.56 C34.87 50.11, 29.12 52.8, 23.76 52.39 C18.4 51.98, 11.31 47.92, 7.12 44.08 C2.93 40.25, -1.13 34.83, -1.37 29.37 C-1.61 23.91, 2.29 16.27, 5.68 11.32 C9.08 6.37, 16.77 1.09, 19 -0.34 C21.23 -1.77, 18.85 2.08, 19.07 2.74" stroke="#228be6" stroke-width="2" fill="none"></path></g><g transform="translate(223.74081571161526 221.01604865793846) rotate(0 7.1199951171875 12.5)"><text x="7.1199951171875" y="17.52" font-family="Virgil, Segoe UI Emoji" font-size="20px" fill="#228be6" text-anchor="middle" style="white-space: pre;" direction="ltr" dominant-baseline="alphabetic">2</text></g><g stroke-linecap="round" transform="translate(71.60028172119144 204.67899717071703) rotate(0 25.563739179294487 25.591906329363894)"><path d="M31.35 0.06 C36.47 1.16, 43.12 5.82, 46.28 10.62 C49.45 15.41, 50.8 23.4, 50.32 28.85 C49.83 34.3, 47.01 39.59, 43.37 43.32 C39.73 47.06, 33.81 50.84, 28.46 51.25 C23.12 51.66, 16.05 49.09, 11.29 45.76 C6.53 42.44, 1.41 36.53, -0.11 31.32 C-1.62 26.12, -0.32 19.29, 2.2 14.54 C4.72 9.79, 9.27 4.86, 14.99 2.85 C20.72 0.84, 32.03 1.79, 36.55 2.48 C41.07 3.16, 42.23 6.52, 42.1 6.95 M35.13 3.03 C39.97 5.02, 46.78 8.94, 49.09 14 C51.39 19.07, 50.57 28.04, 48.94 33.42 C47.3 38.81, 43.5 43.32, 39.29 46.3 C35.09 49.28, 28.89 51.56, 23.71 51.28 C18.54 51, 12.12 48.34, 8.25 44.61 C4.37 40.88, 0.89 34.62, 0.45 28.9 C0.02 23.18, 2.55 15.15, 5.63 10.31 C8.72 5.47, 14.04 1.16, 18.94 -0.15 C23.85 -1.46, 32.31 2.15, 35.06 2.47 C37.81 2.78, 35.65 1.17, 35.45 1.75" stroke="#228be6" stroke-width="2" fill="none"></path></g><g transform="translate(90.27773001572882 217.67469299109678) rotate(0 6.80999755859375 12.5)"><text x="6.80999755859375" y="17.52" font-family="Virgil, Segoe UI Emoji" font-size="20px" fill="#228be6" text-anchor="middle" style="white-space: pre;" direction="ltr" dominant-baseline="alphabetic">3</text></g><g stroke-linecap="round" transform="translate(294.8625306511817 108.27710012533552) rotate(0 23.047484211914025 23.072878851640525)"><path d="M27 0.32 C31.65 0.85, 37.72 4.79, 40.91 8.62 C44.1 12.45, 46.2 18.38, 46.13 23.31 C46.06 28.23, 43.65 34.44, 40.47 38.16 C37.29 41.88, 31.95 44.88, 27.05 45.63 C22.14 46.37, 15.29 45.09, 11.05 42.63 C6.81 40.18, 3.23 35.52, 1.61 30.91 C-0.02 26.3, -0.41 19.62, 1.32 14.98 C3.04 10.34, 7.44 5.48, 11.94 3.07 C16.44 0.66, 25.52 0.76, 28.32 0.51 C31.12 0.26, 28.86 1.25, 28.74 1.56 M27.62 -0.11 C32.3 0.61, 37.43 5.21, 40.44 9.02 C43.45 12.84, 45.78 17.91, 45.7 22.79 C45.63 27.67, 43.11 34.57, 40 38.33 C36.88 42.09, 31.81 44.62, 27 45.33 C22.19 46.04, 15.4 45.05, 11.13 42.6 C6.86 40.15, 3.01 35.18, 1.4 30.62 C-0.22 26.06, -0.2 19.79, 1.44 15.24 C3.07 10.69, 6.79 5.76, 11.2 3.34 C15.62 0.93, 25.35 1.26, 27.93 0.77 C30.51 0.28, 26.83 0.18, 26.68 0.38" stroke="#228be6" stroke-width="2" fill="none"></path></g><g transform="translate(308.26860687721 120.26537276172547) rotate(0 9.844375610351562 11.269617117759871)"><text x="9.844375610351562" y="15.795495352252239" font-family="Virgil, Segoe UI Emoji" font-size="18.031387388415798px" fill="#228be6" text-anchor="middle" style="white-space: pre;" direction="ltr" dominant-baseline="alphabetic">-3</text></g><g stroke-linecap="round" transform="translate(347.89704358663994 192.94084364579695) rotate(0 25.56373917929443 25.59190632936388)"><path d="M36.16 2.93 C40.85 4.94, 46.24 10.39, 48.48 15.37 C50.72 20.36, 51.03 27.52, 49.59 32.84 C48.14 38.15, 44.24 44.27, 39.81 47.26 C35.38 50.26, 28.28 51.33, 22.99 50.82 C17.69 50.31, 12.02 48.21, 8.05 44.21 C4.07 40.21, -0.18 32.48, -0.88 26.8 C-1.57 21.13, 0.45 14.34, 3.91 10.15 C7.37 5.97, 13.68 2.62, 19.88 1.69 C26.07 0.75, 37.01 3.48, 41.08 4.55 C45.16 5.62, 44.69 7.6, 44.34 8.08 M19.04 -0.31 C23.85 -1.79, 32.35 -0.61, 37.21 2.07 C42.08 4.75, 46.2 10.87, 48.22 15.76 C50.25 20.65, 50.7 26.43, 49.39 31.42 C48.08 36.4, 44.89 42.63, 40.36 45.67 C35.82 48.72, 27.93 49.98, 22.17 49.69 C16.41 49.41, 9.29 47.75, 5.79 43.97 C2.29 40.19, 1.54 32.44, 1.16 26.99 C0.79 21.55, 0.28 15.52, 3.55 11.28 C6.81 7.05, 18.06 3.2, 20.76 1.58 C23.46 -0.03, 20.05 1.32, 19.74 1.61" stroke="#228be6" stroke-width="2" fill="none"></path></g><g transform="translate(367.96449127082565 205.9365394661767) rotate(0 5.4199981689453125 12.5)"><text x="5.4199981689453125" y="17.52" font-family="Virgil, Segoe UI Emoji" font-size="20px" fill="#228be6" text-anchor="middle" style="white-space: pre;" direction="ltr" dominant-baseline="alphabetic">11</text></g><g stroke-linecap="round" transform="translate(263.64479404888493 283.60006613437105) rotate(0 25.56373917929443 25.591906329363894)"><path d="M21.33 -0.18 C26.28 -1.58, 33.68 0.16, 38.27 3.17 C42.86 6.17, 46.95 12.47, 48.86 17.85 C50.78 23.23, 51.39 30.54, 49.76 35.44 C48.13 40.35, 44.01 44.61, 39.08 47.3 C34.15 49.98, 25.86 52.56, 20.18 51.55 C14.51 50.54, 8.36 45.48, 5.03 41.24 C1.69 37.01, 0.13 31.35, 0.18 26.14 C0.23 20.93, 1.05 14.38, 5.34 9.97 C9.64 5.56, 22.03 1.32, 25.94 -0.34 C29.84 -2, 28.88 -0.48, 28.79 -0.01 M13.69 3.58 C18.69 1.3, 28.1 1.01, 33.73 2.3 C39.36 3.59, 44.55 7, 47.46 11.3 C50.37 15.61, 51.69 22.76, 51.18 28.1 C50.68 33.45, 48.51 39.66, 44.43 43.38 C40.36 47.1, 32.52 50.1, 26.73 50.42 C20.95 50.75, 14.11 48.52, 9.73 45.33 C5.35 42.13, 1.67 36.45, 0.47 31.26 C-0.73 26.08, 0 19, 2.51 14.2 C5.03 9.4, 13.58 4.58, 15.55 2.45 C17.51 0.32, 13.96 1.16, 14.29 1.41" stroke="#228be6" stroke-width="2" fill="none"></path></g><g transform="translate(286.4222408175434 296.5957619547508) rotate(0 2.7099990844726562 12.5)"><text x="2.7099990844726562" y="17.52" font-family="Virgil, Segoe UI Emoji" font-size="20px" fill="#228be6" text-anchor="middle" style="white-space: pre;" direction="ltr" dominant-baseline="alphabetic">1</text></g><g stroke-linecap="round" transform="translate(132.13429891849785 296.9130842453293) rotate(0 25.563739179294487 25.59190632936388)"><path d="M14.23 2.12 C18.81 -0.36, 26.95 -1.01, 32.27 0.37 C37.58 1.75, 42.99 5.99, 46.12 10.42 C49.25 14.84, 51.57 21.48, 51.03 26.94 C50.5 32.4, 46.89 39.03, 42.9 43.18 C38.9 47.33, 32.45 51.42, 27.05 51.85 C21.65 52.28, 14.97 48.97, 10.49 45.77 C6.02 42.58, 1.41 37.74, 0.21 32.68 C-1 27.62, 0.12 20.81, 3.27 15.43 C6.42 10.04, 15.56 2.85, 19.12 0.39 C22.68 -2.07, 24.48 0.04, 24.64 0.68 M33.36 2.22 C38.49 3.13, 44.14 5.92, 47.21 10.21 C50.28 14.5, 52.38 22.28, 51.78 27.96 C51.18 33.64, 47.81 40.51, 43.61 44.3 C39.42 48.1, 31.84 50.18, 26.62 50.72 C21.4 51.26, 16.73 50.45, 12.29 47.55 C7.85 44.65, 1.69 38.67, -0.04 33.32 C-1.77 27.97, -0.76 20.36, 1.91 15.46 C4.57 10.55, 10.67 6.31, 15.95 3.88 C21.23 1.45, 30.73 1.42, 33.57 0.87 C36.4 0.31, 33.32 0.26, 32.94 0.54" stroke="#228be6" stroke-width="2" fill="none"></path></g><g transform="translate(146.39175667348445 309.9087800657091) rotate(0 11.229988098144531 12.5)"><text x="11.229988098144531" y="17.52" font-family="Virgil, Segoe UI Emoji" font-size="20px" fill="#228be6" text-anchor="middle" style="white-space: pre;" direction="ltr" dominant-baseline="alphabetic">-2</text></g><g stroke-linecap="round" transform="translate(10.000000000000114 295.8731921105025) rotate(0 25.563739179294487 25.59190632936388)"><path d="M13.34 2.51 C18.09 0.11, 26.49 0.41, 31.91 1.54 C37.33 2.67, 42.54 5.19, 45.85 9.29 C49.17 13.39, 51.96 20.55, 51.81 26.14 C51.66 31.73, 48.93 38.63, 44.95 42.84 C40.96 47.05, 33.54 50.58, 27.91 51.42 C22.27 52.26, 15.57 50.93, 11.12 47.87 C6.67 44.82, 2.54 38.54, 1.19 33.09 C-0.16 27.64, 0.15 20.43, 3.02 15.19 C5.89 9.96, 14.98 4.13, 18.42 1.68 C21.86 -0.77, 23.6 0.36, 23.66 0.5 M33.99 0.44 C39.24 1.97, 45.08 8.36, 48.09 12.84 C51.1 17.32, 52.6 22.12, 52.04 27.3 C51.47 32.49, 48.99 40.06, 44.7 43.96 C40.41 47.86, 32 50.13, 26.32 50.71 C20.64 51.28, 14.66 50.51, 10.61 47.41 C6.56 44.3, 3.32 37.55, 2.02 32.09 C0.72 26.63, 0.52 19.78, 2.82 14.65 C5.13 9.51, 11.04 3.81, 15.83 1.3 C20.61 -1.21, 28.59 -0.62, 31.53 -0.44 C34.47 -0.26, 33.39 1.78, 33.48 2.39" stroke="#228be6" stroke-width="2" fill="none"></path></g><g transform="translate(28.6774482945375 308.8688879308822) rotate(0 6.80999755859375 12.5)"><text x="6.80999755859375" y="17.52" font-family="Virgil, Segoe UI Emoji" font-size="20px" fill="#228be6" text-anchor="middle" style="white-space: pre;" direction="ltr" dominant-baseline="alphabetic">3</text></g></svg>